<mxfile host="app.diagrams.net" agent="Mozilla/5.0 (Windows NT 10.0; Win64; x64) AppleWebKit/537.36 (KHTML, like Gecko) Chrome/130.0.0.0 Safari/537.36" version="24.8.4">
  <diagram name="Page-1" id="rU24WwErNgFDm-pNa31l">
    <mxGraphModel dx="794" dy="412" grid="1" gridSize="10" guides="1" tooltips="1" connect="1" arrows="1" fold="1" page="1" pageScale="1" pageWidth="827" pageHeight="1169" math="0" shadow="0">
      <root>
        <mxCell id="0" />
        <mxCell id="1" parent="0" />
        <mxCell id="XzJXCJWgenMVqa28rA8Z-7" value="" style="edgeStyle=orthogonalEdgeStyle;rounded=0;orthogonalLoop=1;jettySize=auto;html=1;" parent="1" source="XzJXCJWgenMVqa28rA8Z-1" target="XzJXCJWgenMVqa28rA8Z-2" edge="1">
          <mxGeometry relative="1" as="geometry">
            <Array as="points">
              <mxPoint x="280" y="460" />
              <mxPoint x="280" y="330" />
            </Array>
          </mxGeometry>
        </mxCell>
        <mxCell id="XzJXCJWgenMVqa28rA8Z-18" value="sa" style="edgeLabel;html=1;align=center;verticalAlign=middle;resizable=0;points=[];" parent="XzJXCJWgenMVqa28rA8Z-7" vertex="1" connectable="0">
          <mxGeometry x="0.6784" y="-1" relative="1" as="geometry">
            <mxPoint as="offset" />
          </mxGeometry>
        </mxCell>
        <mxCell id="XzJXCJWgenMVqa28rA8Z-17" value="" style="edgeStyle=orthogonalEdgeStyle;rounded=0;orthogonalLoop=1;jettySize=auto;html=1;" parent="1" source="XzJXCJWgenMVqa28rA8Z-1" target="XzJXCJWgenMVqa28rA8Z-16" edge="1">
          <mxGeometry relative="1" as="geometry">
            <Array as="points">
              <mxPoint x="280" y="460" />
              <mxPoint x="280" y="615" />
            </Array>
          </mxGeometry>
        </mxCell>
        <mxCell id="E8o_UW8kJ27gPowd-B72-1" value="sa" style="edgeLabel;html=1;align=center;verticalAlign=middle;resizable=0;points=[];" vertex="1" connectable="0" parent="XzJXCJWgenMVqa28rA8Z-17">
          <mxGeometry x="0.6333" y="-3" relative="1" as="geometry">
            <mxPoint as="offset" />
          </mxGeometry>
        </mxCell>
        <mxCell id="E8o_UW8kJ27gPowd-B72-3" value="" style="edgeStyle=orthogonalEdgeStyle;rounded=0;orthogonalLoop=1;jettySize=auto;html=1;" edge="1" parent="1" source="XzJXCJWgenMVqa28rA8Z-1" target="E8o_UW8kJ27gPowd-B72-2">
          <mxGeometry relative="1" as="geometry" />
        </mxCell>
        <mxCell id="XzJXCJWgenMVqa28rA8Z-1" value="" style="rounded=0;whiteSpace=wrap;html=1;" parent="1" vertex="1">
          <mxGeometry x="100" y="430" width="120" height="60" as="geometry" />
        </mxCell>
        <mxCell id="XzJXCJWgenMVqa28rA8Z-2" value="" style="rounded=0;whiteSpace=wrap;html=1;" parent="1" vertex="1">
          <mxGeometry x="480" y="300" width="120" height="60" as="geometry" />
        </mxCell>
        <mxCell id="XzJXCJWgenMVqa28rA8Z-16" value="" style="whiteSpace=wrap;html=1;rounded=0;" parent="1" vertex="1">
          <mxGeometry x="460" y="580" width="120" height="60" as="geometry" />
        </mxCell>
        <mxCell id="E8o_UW8kJ27gPowd-B72-2" value="" style="whiteSpace=wrap;html=1;rounded=0;" vertex="1" parent="1">
          <mxGeometry x="480" y="430" width="120" height="60" as="geometry" />
        </mxCell>
      </root>
    </mxGraphModel>
  </diagram>
</mxfile>
